<!-- icon666.com - MILLIONS vector ICONS FREE --><svg id="Layer_1" enable-background="new 0 0 468 468" viewBox="0 0 468 468" xmlns="http://www.w3.org/2000/svg" width="50" height="50"><g><g><g><path d="m423.999 93.923h-315.517l27.036 190.141h255.968z" fill="#fff"></path></g><g><g><g><ellipse cx="196.406" cy="422.624" fill="#fff" rx="33.529" ry="33.376"></ellipse></g><g><path d="m188.876 422.624c0-13.844 8.468-25.718 20.529-30.773-3.998-1.675-8.39-2.603-13-2.603-18.518 0-33.529 14.943-33.529 33.376s15.012 33.376 33.53 33.376c4.61 0 9.002-.927 13-2.603-12.062-5.055-20.53-16.929-20.53-30.773z" fill="#e0e0e0"></path></g><g><path d="m196.405 468c-25.105 0-45.529-20.355-45.529-45.376 0-25.02 20.424-45.375 45.529-45.375s45.53 20.355 45.53 45.375c0 25.021-20.425 45.376-45.53 45.376zm0-66.751c-11.871 0-21.529 9.589-21.529 21.375s9.658 21.376 21.529 21.376c11.872 0 21.53-9.589 21.53-21.376s-9.658-21.375-21.53-21.375z" fill="#4d4d4d"></path></g></g><g><g><ellipse cx="348.406" cy="422.624" fill="#fff" rx="33.529" ry="33.376"></ellipse></g><g><path d="m340.876 422.624c0-13.844 8.468-25.718 20.529-30.773-3.998-1.675-8.39-2.603-13-2.603-18.518 0-33.529 14.943-33.529 33.376s15.012 33.376 33.53 33.376c4.61 0 9.002-.927 13-2.603-12.062-5.055-20.53-16.929-20.53-30.773z" fill="#e0e0e0"></path></g><g><path d="m348.405 468c-25.105 0-45.529-20.355-45.529-45.376 0-25.02 20.424-45.375 45.529-45.375s45.53 20.355 45.53 45.375c0 25.021-20.425 45.376-45.53 45.376zm0-66.751c-11.871 0-21.529 9.589-21.529 21.375s9.658 21.376 21.529 21.376c11.872 0 21.53-9.589 21.53-21.376s-9.658-21.375-21.53-21.375z" fill="#4d4d4d"></path></g></g></g><path d="m426.022 82.094c-6.532-1.119-12.733 3.273-13.851 9.806l-22.406 131.034h-250.818l-30.234-212.623c-.84-5.915-5.905-10.311-11.88-10.311h-52.834c-6.627 0-12 5.373-12 12s5.373 12 12 12h42.419l40.317 283.538c3.661 25.748 26.067 45.164 52.119 45.164h195.145c6.627 0 12-5.373 12-12s-5.373-12-12-12h-195.144c-14.178 0-26.369-10.551-28.358-24.542l-1.151-8.095h242.141c5.847 0 10.843-4.214 11.828-9.978l32.513-190.142c1.116-6.533-3.274-12.734-9.806-13.851z" fill="#4d4d4d"></path><g><circle cx="419.27" cy="340.702" fill="#77bc4d" r="14"></circle></g></g><g><g><path d="m266.512 12c-44.892 0-81.283 36.308-81.283 81.096s36.392 81.096 81.284 81.096 81.283-36.308 81.283-81.096-36.392-81.096-81.284-81.096z" fill="#a2d962"></path></g><g><path d="m210.229 93.096c0-40.547 29.827-74.141 68.784-80.14-4.075-.628-8.249-.956-12.5-.956-44.892 0-81.283 36.308-81.283 81.096s36.392 81.096 81.284 81.096c4.251 0 8.425-.328 12.5-.956-38.958-6-68.785-39.593-68.785-80.14z" fill="#77bc4d"></path></g><g><path d="m266.513 186.192c-51.437 0-93.284-41.763-93.284-93.096s41.847-93.096 93.283-93.096c51.437 0 93.284 41.763 93.284 93.096s-41.847 93.096-93.283 93.096zm-.001-162.192c-38.203 0-69.283 30.997-69.283 69.096s31.081 69.096 69.284 69.096 69.283-30.997 69.283-69.096-31.081-69.096-69.284-69.096z" fill="#4d4d4d"></path></g><path d="m296.994 81.096h-18.481v-18.411c0-6.627-5.373-12-12-12s-12 5.373-12 12v18.411h-18.481c-6.627 0-12 5.373-12 12s5.373 12 12 12h18.481v18.411c0 6.627 5.373 12 12 12s12-5.373 12-12v-18.411h18.481c6.627 0 12-5.373 12-12s-5.373-12-12-12z" fill="#4d4d4d"></path></g></g></svg>